<?xml version="1.0" standalone="no"?>
<!DOCTYPE svg PUBLIC "-//W3C//DTD SVG 20010904//EN"
 "http://www.w3.org/TR/2001/REC-SVG-20010904/DTD/svg10.dtd">
<svg version="1.0" xmlns="http://www.w3.org/2000/svg"
 width="731.000000pt" height="731.000000pt" viewBox="0 0 731.000000 731.000000"
 preserveAspectRatio="xMidYMid meet">
<metadata>
Created by potrace 1.11, written by Peter Selinger 2001-2013
</metadata>
<g transform="translate(0.000000,731.000000) scale(0.100000,-0.100000)"
fill="#000000" stroke="none">
<path d="M0 3655 l0 -3655 3655 0 3655 0 0 3655 0 3655 -3655 0 -3655 0 0
-3655z m3811 1792 c339 -60 669 -165 865 -275 49 -28 142 -73 207 -102 65 -28
140 -64 166 -80 26 -16 94 -46 152 -65 195 -68 462 -222 577 -334 215 -209
346 -548 312 -814 l-10 -80 48 -136 c47 -136 47 -136 47 -266 -1 -122 -3 -136
-34 -220 -18 -49 -48 -112 -65 -140 -79 -122 -217 -201 -394 -226 -65 -9 -78
-14 -114 -50 -147 -142 -524 -206 -769 -129 -33 10 -61 15 -64 11 -2 -4 5 -86
15 -182 11 -96 20 -213 20 -260 0 -76 -3 -88 -22 -106 -71 -65 -343 -113 -813
-144 -230 -15 -940 -15 -1155 0 -450 31 -717 79 -789 139 -27 22 -27 51 -1
352 17 194 20 283 15 429 -3 102 -9 197 -12 211 -4 22 -19 33 -88 64 -183 82
-339 218 -424 370 -52 91 -119 281 -127 358 -4 36 -16 67 -35 95 -43 62 -87
159 -100 222 -6 31 -27 97 -47 146 -32 79 -36 103 -40 196 -3 85 0 123 17 190
42 166 180 400 302 513 64 60 213 141 332 181 184 62 539 97 777 77 100 -8
123 -7 178 9 78 22 243 56 337 68 39 5 187 8 330 7 226 -3 279 -7 406 -29z"/>
<path d="M3050 3385 c-7 -9 -11 -18 -8 -20 3 -3 11 1 18 10 7 9 11 18 8 20 -3
3 -11 -1 -18 -10z"/>
<path d="M2187 3366 c-4 -10 -5 -21 -2 -24 9 -9 17 6 13 25 -3 17 -4 17 -11
-1z"/>
<path d="M4055 3336 c-23 -7 -50 -18 -60 -24 -19 -11 -19 -11 3 -12 22 0 102
35 102 45 0 3 -1 5 -2 4 -2 0 -21 -6 -43 -13z"/>
<path d="M4747 2994 c-21 -96 -13 -119 41 -111 49 9 58 20 42 54 -8 16 -21 50
-30 77 -8 27 -20 51 -26 53 -6 2 -18 -30 -27 -73z"/>
</g>
</svg>
